<?xml version="1.0" standalone="no"?>
<!DOCTYPE svg PUBLIC "-//W3C//DTD SVG 20010904//EN"
 "http://www.w3.org/TR/2001/REC-SVG-20010904/DTD/svg10.dtd">
<svg version="1.0" xmlns="http://www.w3.org/2000/svg"
 preserveAspectRatio="xMidYMid meet">

<g transform="translate(0.000000,40.000000) scale(0.100000,-0.100000)"
fill="#000000" stroke="none">
<path stroke="black" stroke-width="10" d="M131 380 c-76 -33 -121 -99 -121 -180 0 -49 26 -115 56 -142 70 -62
198 -62 268 0 30 27 56 93 56 142 0 105 -73 181 -178 187 -32 1 -68 -2 -81 -7z
"/>
<path fill="white" d="M131 380 m149 -19 c53 -28 91 -82 98 -136 2 -26 1 -50 -5 -54 -14 -10 -53 -80 -53 -97
0 -20 -76 -54 -120 -54 -44 0 -120 34 -120 54 0 17 -39 87 -54 98 -5 3 -6 27
-2 54 16 119 152 191 256 135z"/>
<path d="M79 310 c-40 -40 -37 -74 7 -78 27 -3 35 2 52 32 20 34 20 34 1 55
-25 27 -25 27 -60 -9z"/>
<path d="M256 319 c-13 -19 -12 -24 6 -55 17 -30 25 -35 52 -32 44 4 47 38 7
78 -35 36 -45 37 -65 9z"/>
<path d="M146 128 c-16 -38 -10 -50 34 -68 25 -10 33 -9 59 10 29 20 30 23 18
53 -12 28 -19 32 -55 35 -40 3 -43 1 -56 -30z"/>
</g>
</svg>
