<?xml version="1.0" standalone="no"?>
<!DOCTYPE svg PUBLIC "-//W3C//DTD SVG 20010904//EN"
 "http://www.w3.org/TR/2001/REC-SVG-20010904/DTD/svg10.dtd">
<svg version="1.0" xmlns="http://www.w3.org/2000/svg"

 preserveAspectRatio="xMidYMid meet">

<g transform="translate(0.000000,40.000000) scale(0.100000,-0.100000)"
fill="#000000" stroke="none">
<path stroke="black" stroke-width="10px" d="M115 371 c-48 -22 -69 -44 -90 -94 -29 -70 -10 -174 41 -219 70 -62
198 -62 268 0 30 27 56 93 56 142 0 49 -26 115 -56 142 -55 48 -150 61 -219
29z"/>
<path fill="white" d="M115 371 m158 -5 c62 -26 84 -62 91 -149 4 -60 2 -85 -9 -108 -32 -61 -145 -109
-183 -77 -17 15 -80 43 -96 43 -17 0 -56 88 -56 125 0 128 135 216 253 166z"/>

<path d="M180 332 c0 -22 7 -32 34 -45 33 -15 36 -15 61 5 l26 20 -22 24 c-16
17 -33 24 -61 24 -35 0 -38 -2 -38 -28z"/>
<path d="M50 255 c-21 -25 -22 -70 -3 -94 l18 -22 26 19 c21 17 24 27 21 60
-3 33 -8 41 -28 45 -13 2 -28 -1 -34 -8z"/>
<path d="M223 168 c-25 -18 -31 -28 -27 -48 10 -47 13 -50 48 -50 61 0 90 72
41 104 -30 20 -24 20 -62 -6z"/>
</g>
</svg>
