<?xml version="1.0" standalone="no"?>
<!DOCTYPE svg PUBLIC "-//W3C//DTD SVG 20010904//EN"
 "http://www.w3.org/TR/2001/REC-SVG-20010904/DTD/svg10.dtd">
<svg version="1.0" xmlns="http://www.w3.org/2000/svg"

 preserveAspectRatio="xMidYMid meet">

<g transform="translate(0.000000,40.000000) scale(0.100000,-0.100000)"
fill="#000000" stroke="none">
<path stroke="black" stroke-width="10px" d="M131 379 c-75 -30 -121 -97 -121 -179 0 -49 26 -115 56 -142 70 -62
198 -62 268 0 30 27 56 93 56 142 0 49 -26 115 -56 142 -48 42 -145 60 -203
37z"/>
<path fill="white" d=" M131 379 m155 -24 c25 -34 62 -73 74 -77 17 -5 23 -78 11 -126 -7 -24 -24 -56 -39
-73 -22 -24 -37 -31 -80 -34 -29 -3 -61 -9 -71 -15 -14 -7 -29 -4 -62 13 -23
13 -45 29 -47 36 -3 10 0 11 16 2 32 -17 41 -13 50 22 8 27 6 36 -16 60 -29
30 -40 33 -67 14 -16 -12 -17 -18 -7 -48 11 -30 10 -32 -3 -15 -24 32 -29 102
-11 150 18 47 44 75 91 101 41 22 142 16 161 -10z"/>
<path d="M111 337 c-21 -23 -21 -25 -4 -46 16 -19 22 -20 55 -11 38 11 59 45
43 69 -12 20 -70 12 -94 -12z"/>
<path d="M241 189 c-12 -40 -12 -44 11 -61 31 -23 40 -23 68 7 20 21 22 29 14
57 -8 28 -15 33 -45 36 -34 3 -36 1 -48 -39z"/>
</g>
</svg>
