<?xml version="1.0" standalone="no"?>
<!DOCTYPE svg PUBLIC "-//W3C//DTD SVG 20010904//EN"
 "http://www.w3.org/TR/2001/REC-SVG-20010904/DTD/svg10.dtd">
<svg version="1.0" xmlns="http://www.w3.org/2000/svg"

 preserveAspectRatio="xMidYMid meet">

<g transform="translate(0.000000,40.000000) scale(0.100000,-0.100000)"
fill="#000000" stroke="none">
<path stroke="black" stroke-width="10px" d="M115 371 c-48 -22 -69 -44 -90 -94 -50 -120 26 -252 154 -265 120
-11 211 69 211 188 0 49 -26 115 -56 142 -55 48 -150 61 -219 29z"/>
<path fill="white" d="M115 371 m85 -2 c19
-6 49 -10 67 -10 40 0 99 -61 109 -114 12 -66 0 -98 -62 -160 -53 -52 -64 -59
-108 -63 -35 -3 -47 -2 -42 7 4 6 16 11 26 11 26 0 31 13 19 48 -8 24 -17 31
-51 36 -32 5 -43 3 -54 -11 -20 -27 -17 -39 19 -62 17 -11 28 -21 23 -21 -23
0 -79 46 -95 79 -54 105 -25 204 74 255 36 19 32 19 75 5z"/>
<path d="M92 320 c-19 -8 -60 -77 -50 -85 6 -4 47 -25 50 -25 3 0 14 14 27 31
17 22 21 38 16 60 -7 31 -9 32 -43 19z"/>
<path d="M250 272 c-21 -17 -21 -21 -9 -60 12 -41 14 -43 48 -40 30 3 37 8 45
36 8 28 6 36 -14 57 -28 30 -40 31 -70 7z"/>
</g>
</svg>
