<?xml version="1.0" standalone="no"?>
<!DOCTYPE svg PUBLIC "-//W3C//DTD SVG 20010904//EN"
 "http://www.w3.org/TR/2001/REC-SVG-20010904/DTD/svg10.dtd">
<svg version="1.0" xmlns="http://www.w3.org/2000/svg" 
 preserveAspectRatio="xMidYMid meet">

<g transform="translate(0.000000,40.000000) scale(0.100000,-0.100000)">
    <path stroke="black" stroke-width="10"  d="M115 371 c-48 -22 -69 -44 -90 -94 -29 -70 -10 -174 41 -219 70 -62 198 -62 268 0 30 27 56 93 56 142 0 49 -26 115 -56 142 -55 48 -150 61 -219 29z"/>
    <path fill="white" d="M115 371 m163 -10 c69 -35 102 -88 102 -160 0 -38 -39 -126 -56 -126 -16 0 -79 -28 -96 -43 -38 -32 -151 16 -183 77 -11 23 -13 48 -9 108 6 65 11 83 33 107 52 57 140 72 209 37z"/>
    <path d="M121 336 l-22 -24 26 -20 c25 -20 28 -20 61 -5 27 13 34 23 34 45 0 26 -3 28 -38 28 -28 0 -45 -7 -61 -24z"/>
    <path d="M313 262 c-17 -2 -22 -12 -25 -44 -3 -33 0 -43 21 -60 l26 -19 18 22 c33 41 6 109 -40 101z"/>
    <path d="M113 173 c-47 -32 -17 -103 43 -103 35 0 38 3 48 50 4 20 -1 29 -29 48 -40 26 -34 25 -62 5z"/>
</g>
</svg>