<?xml version="1.0" standalone="no"?>
<!DOCTYPE svg PUBLIC "-//W3C//DTD SVG 20010904//EN"
 "http://www.w3.org/TR/2001/REC-SVG-20010904/DTD/svg10.dtd">
<svg version="1.0" xmlns="http://www.w3.org/2000/svg"

 preserveAspectRatio="xMidYMid meet">

<g transform="translate(0.000000,40.000000) scale(0.100000,-0.100000)"
fill="#000000" stroke="none">
<path stroke="black" stroke-width="10px" d="M115 371 c-48 -22 -69 -44 -90 -94 -29 -70 -10 -174 41 -219 70 -62
198 -62 268 0 30 27 56 93 56 142 0 49 -26 115 -56 142 -55 48 -150 61 -219
29z"/>
<path fill="white" d="M115 371 m195 -31 c50 -39 76 -91 60 -119 -5 -11 -11 -41 -11 -68 -2 -41 -7 -53
-36 -81 -41 -38 -60 -42 -37 -7 9 14 15 27 13 28 -2 1 -13 10 -25 20 -19 16
-23 16 -62 0 -44 -17 -52 -36 -29 -65 6 -9 21 -18 32 -21 12 -3 7 -5 -14 -6
-44 -1 -120 41 -149 83 -14 21 -25 55 -28 88 -7 74 16 113 92 155 79 42 134
40 194 -7z"/>

<path d="M201 298 c-8 -30 -6 -36 22 -60 37 -33 35 -33 66 -9 19 15 22 23 16
50 -4 21 -15 35 -32 42 -45 17 -62 11 -72 -23z"/>
<path d="M46 238 c-19 -27 -20 -48 -4 -83 7 -16 17 -24 26 -20 7 3 20 5 28 5
25 0 14 89 -13 107 -19 13 -23 12 -37 -9z"/>
</g>
</svg>
